<?xml version="1.0" encoding="UTF-8" standalone="no"?>
<!-- Created with Inkscape (http://www.inkscape.org/) -->

<svg
   xmlns:dc="http://purl.org/dc/elements/1.1/"
   xmlns:cc="http://creativecommons.org/ns#"
   xmlns:rdf="http://www.w3.org/1999/02/22-rdf-syntax-ns#"
   xmlns:svg="http://www.w3.org/2000/svg"
   xmlns="http://www.w3.org/2000/svg"
   xmlns:sodipodi="http://sodipodi.sourceforge.net/DTD/sodipodi-0.dtd"
   xmlns:inkscape="http://www.inkscape.org/namespaces/inkscape"
   width="210mm"
   height="297mm"
   viewBox="0 0 744.09448819 1052.3622047"
   id="svg2"
   version="1.1"
   inkscape:version="0.91 r13725"
   sodipodi:docname="graycircle.svg">
  <defs
     id="defs4" />
  <sodipodi:namedview
     id="base"
     pagecolor="#ffffff"
     bordercolor="#666666"
     borderopacity="1.0"
     inkscape:pageopacity="0.0"
     inkscape:pageshadow="2"
     inkscape:zoom="1.4"
     inkscape:cx="179.52103"
     inkscape:cy="690.0065"
     inkscape:document-units="px"
     inkscape:current-layer="layer1"
     showgrid="false"
     inkscape:window-width="1280"
     inkscape:window-height="737"
     inkscape:window-x="-8"
     inkscape:window-y="-8"
     inkscape:window-maximized="1" />
  <metadata
     id="metadata7">
    <rdf:RDF>
      <cc:Work
         rdf:about="">
        <dc:format>image/svg+xml</dc:format>
        <dc:type
           rdf:resource="http://purl.org/dc/dcmitype/StillImage" />
        <dc:title></dc:title>
      </cc:Work>
    </rdf:RDF>
  </metadata>
  <g
     inkscape:label="Layer 1"
     inkscape:groupmode="layer"
     id="layer1">
    <circle
       style="opacity:0.98999999;fill:#917c6f;fill-opacity:1;stroke-width:8;stroke-miterlimit:4;stroke-dasharray:none;stroke-dashoffset:0"
       id="path3336"
       cx="272.85715"
       cy="408.07648"
       r="41.42857" />
    <path
       style="opacity:0.98999999;fill:#917c6f;fill-opacity:1;stroke-width:8;stroke-miterlimit:4;stroke-dasharray:none;stroke-dashoffset:0"
       id="path3338"
       d="m 276.46466,389.18073 c 3.34237,7.04631 8.50504,11.5144 15.5883,14.45437 6.58066,1.91159 13.70321,2.78212 20.50242,1.7527 0.88847,-0.37772 1.84276,-0.6279 2.66541,-1.13316 0.75235,-0.46208 2.77434,-2.16249 2.00248,-1.73379 -33.6249,18.6752 -42.93472,29.41581 -32.68383,17.96379 0,0 38.54428,-17.11036 38.54428,-17.11036 l 0,0 c -6.58525,16.36981 -27.44599,23.83551 -44.24798,26.91066 -7.34634,0.0644 -14.83318,-0.64165 -21.64104,-3.59041 -7.39074,-3.84365 -12.93829,-9.1863 -17.32307,-16.30465 0,0 36.59303,-21.20915 36.59303,-21.20915 z"
       inkscape:connector-curvature="0" />
    <path
       style="opacity:0.98999999;fill:#917c6f;fill-opacity:1;stroke-width:8;stroke-miterlimit:4;stroke-dasharray:none;stroke-dashoffset:0"
       id="path3340"
       d="m 290.5813,411.36534 c 4.28916,-0.0967 8.71696,0.68988 12.99679,0.22933 1.42507,-0.15335 2.86249,-0.43223 4.18637,-0.98151 1.20019,-0.49795 4.41505,-2.73775 3.27503,-2.11422 -11.01811,6.02631 -21.94496,12.21801 -32.91744,18.32702 4.86744,-4.89593 5.39943,-11.33497 5.30616,-17.86971 0,0 37.07829,-19.03152 37.07829,-19.03152 l 0,0 c 0.32136,7.29769 0.26848,14.60404 -3.72396,21.03425 -40.90253,25.00807 -28.51815,24.48685 -60.40554,25.25723 0,0 34.2043,-24.85087 34.2043,-24.85087 z"
       inkscape:connector-curvature="0" />
    <path
       style="opacity:0.98999999;fill:#917c6f;fill-opacity:1;stroke-width:8;stroke-miterlimit:4;stroke-dasharray:none;stroke-dashoffset:0"
       id="path3342"
       d="m 284.56424,402.76558 c 7.22029,0.27865 14.4502,0.18482 21.67443,0.15592 2.71012,-0.78974 5.71068,-0.79701 8.39566,-1.67049 0.74742,-0.24315 2.79886,-1.42969 2.11542,-1.04154 -37.3849,21.23274 -45.55421,26.4862 -32.95403,18.44591 2.56874,-3.00761 3.3039,-7.20342 4.27694,-10.95373 0,0 37.91254,-18.24476 37.91254,-18.24476 l 0,0 c -0.88081,4.30461 -2.09746,8.52036 -3.2479,12.74944 -8.92339,16.54767 -31.86786,24.44442 -50.35171,25.31087 -7.36745,-0.0298 -14.73972,-0.1153 -22.10362,0.15591 0,0 34.28227,-24.90753 34.28227,-24.90753 z"
       inkscape:connector-curvature="0" />
    <path
       style="opacity:0.98999999;fill:#917c6f;fill-opacity:1;stroke-width:8;stroke-miterlimit:4;stroke-dasharray:none;stroke-dashoffset:0"
       id="path3348"
       d="m 115.44339,281.69822 c 0.82054,-0.21423 1.5482,-0.69095 2.36005,-0.92524 4.05148,-1.16922 8.43632,-1.36319 12.60578,-1.71258 8.34353,-0.54624 16.70113,-0.79743 25.05833,-1.01176 4.74849,-0.11832 9.49837,-0.11584 14.24783,-0.0852 4.24414,-0.006 8.48837,-4e-5 12.73245,-0.0145 2.61105,-0.0163 5.22198,-0.0321 7.83293,-0.0618 0,0 -8.38692,6.09342 -8.38692,6.09342 l 0,0 c -2.55336,-0.0301 -5.10672,-0.0459 -7.66017,-0.0642 -4.21922,-0.0183 -8.43847,-0.0196 -12.65774,-0.0414 -4.68337,0.0136 -9.36651,-0.0156 -14.0498,-0.0409 -8.25632,-0.005 -16.52437,0.14009 -24.75127,0.88893 -5.30129,0.60206 -10.73243,1.1323 -15.59351,3.50493 0,0 8.26204,-6.52961 8.26204,-6.52961 z"
       inkscape:connector-curvature="0" />
    <path
       style="opacity:0.98999999;fill:#917c6f;fill-opacity:1;stroke-width:8;stroke-miterlimit:4;stroke-dasharray:none;stroke-dashoffset:0"
       id="path3350"
       d="m 120.42677,285.67733 c 1.97406,0.0604 3.94965,0.0572 5.92449,0.0675 2.52313,0.014 5.04632,0.007 7.56941,-0.0105 1.83616,-0.0234 3.67238,-0.0161 5.50861,-0.0204 1.76353,-0.0113 3.52703,0.006 5.29056,0.007 2.42107,0.0264 4.84214,0.0327 7.26333,0.0224 2.81206,0.0269 5.62414,0.025 8.43625,0.007 2.12766,-0.002 4.25522,-0.0252 6.38283,-0.0386 1.69894,-0.0149 3.39787,0.005 5.09682,0.007 1.86743,0.0134 3.73492,-10e-4 5.60235,-0.009 1.497,-0.006 2.99401,-0.008 4.49102,-0.009 0.84206,0.008 1.68413,0.01 2.52621,0.0166 0,0 -8.45862,6.14555 -8.45862,6.14555 l 0,0 c -0.85728,0.007 -1.71455,0.009 -2.57182,0.0166 -1.48867,-9.7e-4 -2.97735,-0.003 -4.46601,-0.009 -1.85901,-0.008 -3.71808,-0.0226 -5.5771,-0.009 -1.70559,0.002 -3.41115,0.022 -5.11674,0.007 -2.09221,-0.0133 -4.18438,-0.0365 -6.27666,-0.0386 -2.81882,-0.0181 -5.63761,-0.0191 -8.45639,0.007 -2.44176,-0.0105 -4.88339,-0.003 -7.32503,0.0224 -1.77025,10e-4 -3.54048,0.0186 -5.31073,0.007 -1.81755,-0.004 -3.63509,0.003 -5.45256,-0.0204 -2.51348,-0.0181 -5.02707,-0.0243 -7.5406,-0.0105 -2.03675,0.0104 -4.07415,0.008 -6.11018,0.0675 0,0 8.57056,-6.22689 8.57056,-6.22689 z"
       inkscape:connector-curvature="0" />
    <path
       style="opacity:0.98999999;fill:#917c6f;fill-opacity:1;stroke-width:8;stroke-miterlimit:4;stroke-dasharray:none;stroke-dashoffset:0"
       id="path3352"
       d="m 128.28392,282.82019 c 2.23774,0.0621 4.47754,0.0817 6.71623,0.0871 2.83807,-0.005 5.67608,0.005 8.5141,-0.0172 2.31275,0.006 4.62548,-0.0122 6.93822,-0.0208 2.1795,0.0156 4.3592,0.01 6.53873,-10e-4 2.17132,0.01 4.34267,0.008 6.51401,0.009 2.2948,0.0144 4.58953,-0.004 6.88434,0.003 2.25747,0.0104 4.51481,0.002 6.77226,-0.0135 1.88317,-0.0119 3.76635,0.002 5.64955,-0.004 1.22302,-0.004 2.446,3.4e-4 3.66903,-0.003 0,0 -8.46209,6.14807 -8.46209,6.14807 l 0,0 c -1.22039,-0.003 -2.44074,0.001 -3.66111,-0.003 -1.87972,-0.005 -3.75942,0.008 -5.6391,-0.004 -2.24504,-0.0161 -4.48997,-0.0239 -6.73504,-0.0135 -2.29731,0.007 -4.59456,-0.0116 -6.89187,0.003 -2.17949,7.2e-4 -4.35899,-6.7e-4 -6.53846,0.009 -2.17851,-0.0111 -4.35718,-0.0166 -6.53565,-0.001 -2.29366,-0.009 -4.58732,-0.0265 -6.881,-0.0208 -2.82222,-0.0226 -5.64443,-0.0123 -8.4667,-0.0172 -2.31864,0.006 -4.63822,0.0267 -6.95602,0.0871 0,0 8.57057,-6.22688 8.57057,-6.22688 z"
       inkscape:connector-curvature="0" />
    <path
       style="opacity:0.98999999;fill:#917c6f;fill-opacity:1;stroke-width:8;stroke-miterlimit:4;stroke-dasharray:none;stroke-dashoffset:0"
       id="path3354"
       d="m 126.21675,280.68442 c 2.08293,0.0827 4.09155,0.72799 6.14319,1.07174 1.34382,0.18036 0.68226,0.10249 1.98439,0.2358 0,0 -8.5209,6.03514 -8.5209,6.03514 l 0,0 c -1.30382,-0.18251 -0.64136,-0.0812 -1.98711,-0.30594 -2.04002,-0.3884 -4.07305,-0.99053 -6.17064,-0.82403 0,0 8.55107,-6.21271 8.55107,-6.21271 z"
       inkscape:connector-curvature="0" />
    <path
       style="opacity:0.98999999;fill:#917c6f;fill-opacity:1;stroke-width:8;stroke-miterlimit:4;stroke-dasharray:none;stroke-dashoffset:0"
       id="path3356"
       d="m 300.42677,252.10591 c 3.09525,-0.15164 6.04467,0.68631 9.02459,1.40795 3.79581,1.21152 8.02563,2.14715 11.10685,4.86294 0.51018,0.44967 0.92598,0.99626 1.38897,1.49439 1.92334,3.16979 3.06904,6.82868 3.16989,10.53944 -1.26112,6.55124 -5.45396,6.67515 -11.92517,10.44728 -2.30662,0.39332 -4.68426,0.32148 -7.01999,0.30842 -2.37071,0.13244 -4.70199,-0.1227 -7.04964,-0.39244 -1.58452,-0.39654 -3.164,-0.77139 -4.79069,-0.93746 -1.56276,0.0303 -2.44821,-0.81402 -2.98468,-2.19673 -0.36681,-1.35435 -0.34067,-2.7712 -0.34577,-4.163 0.005,-1.43669 0.0171,-2.87333 0.0233,-4.31002 0.005,-1.4299 0.006,-2.85982 0.006,-4.28974 0.005,-1.3626 -0.15617,-2.72774 0.4318,-3.99114 4.22101,-5.3022 8.2299,-5.84218 13.45388,-5.91425 1.75113,-0.12055 3.40958,0.15073 4.99188,0.90075 1.85216,1.06697 3.1499,2.84093 4.36721,4.55401 1.01105,1.70441 2.30503,2.24149 3.97681,3.05313 1.57351,0.89645 1.84312,2.532 2.03572,4.18759 0.10673,1.62433 0.40637,3.29102 -0.49571,4.72815 -4.9829,4.71031 -9.17661,6.09952 -15.00847,6.52865 -1.70337,0.10787 -3.42617,0.27974 -5.01799,-0.43566 -1.20791,-0.84693 -1.43261,-2.2225 -1.56568,-3.59263 -0.085,-1.4282 -0.0573,-2.86016 -0.047,-4.29003 0.007,-0.93989 0.0237,-0.47966 -0.0469,-1.38088 0,0 9.31054,-4.87691 9.31054,-4.87691 l 0,0 c 0.14451,1.01082 0.11234,0.51313 0.10579,1.49243 -0.0104,1.39912 -0.0356,2.79924 0.0181,4.19776 0.0631,0.92175 0.0276,2.08817 0.97254,2.55797 1.51644,0.41172 3.08825,0.23399 4.63785,0.14089 1.11545,-0.10602 2.22633,-0.21379 3.31561,-0.49278 0.3412,-0.0874 1.30753,-0.49948 1.00965,-0.31154 -6.602,4.16537 -11.09263,6.08165 -7.42207,4.4886 0.33382,-0.18267 0.72054,-0.32098 0.89812,-0.70232 0.44271,-0.95062 -0.0416,-2.20765 0.0588,-3.1992 -0.12874,-1.31931 -0.21172,-2.60914 -1.52548,-3.26359 -1.71231,-0.85325 -3.18508,-1.84252 -4.17516,-3.54445 -1.10461,-1.57735 -2.33619,-3.18444 -4.1229,-4.01826 -1.52583,-0.54972 -3.10356,-0.64945 -4.71802,-0.55071 -0.86879,0.0338 -1.74807,0.0487 -2.60246,0.23122 -0.22694,0.0485 -0.86732,0.31274 -0.6692,0.19192 7.95181,-4.84917 11.66539,-5.86057 7.99272,-4.81695 -1.17365,0.71836 -0.74362,2.16896 -0.79277,3.35579 -3.3e-4,1.43121 -6.8e-4,2.86242 -0.005,4.29362 -0.005,1.43476 -0.0158,2.86948 -0.0245,4.30422 -10e-4,1.27306 -0.0368,2.56348 0.21232,3.81792 0.40302,1.21565 1.17252,1.12444 2.33456,1.24507 1.58625,0.2421 3.12112,0.69166 4.69604,0.98924 2.30112,0.26786 4.60071,0.40258 6.91957,0.33413 2.27527,-0.0294 4.72461,0.15221 6.83823,-0.81435 -2.75856,1.6271 -5.51321,3.26085 -8.27569,4.88129 -0.23529,0.13802 0.48015,-0.26434 0.69386,-0.43386 1.14728,-0.91001 1.65605,-2.30101 2.10532,-3.64208 0.29739,-3.45189 -0.82972,-7.0041 -2.62852,-9.92274 -0.42638,-0.44574 -0.81432,-0.9317 -1.27913,-1.3372 -2.98704,-2.6059 -7.02622,-3.56368 -10.73295,-4.61665 -3.11037,-0.62269 -6.21171,-1.16677 -9.39548,-0.87032 0,0 8.57056,-6.22688 8.57056,-6.22688 z"
       inkscape:connector-curvature="0" />
    <path
       style="opacity:0.98999999;fill:#917c6f;fill-opacity:1;stroke-width:8;stroke-miterlimit:4;stroke-dasharray:none;stroke-dashoffset:0"
       id="path3358"
       d="m 305.74578,258.54229 c 2.9138,2.70581 5.7704,5.47054 8.75441,8.09967 1.05547,0.85655 2.00629,1.82584 2.94928,2.80099 0,0 -8.87271,5.39913 -8.87271,5.39913 l 0,0 c -0.88778,-0.97397 -1.77448,-1.95162 -2.7695,-2.81984 -2.87022,-2.72698 -5.59292,-5.66831 -8.92829,-7.84286 0,0 8.86681,-5.63709 8.86681,-5.63709 z"
       inkscape:connector-curvature="0" />
    <path
       style="opacity:0.98999999;fill:#917c6f;fill-opacity:1;stroke-width:8;stroke-miterlimit:4;stroke-dasharray:none;stroke-dashoffset:0"
       id="path3360"
       d="m 305.40166,262.08597 c -0.0961,1.72885 -0.0932,3.46013 -0.0862,5.19086 0,0 -9.20239,4.68886 -9.20239,4.68886 l 0,0 c 0.007,-1.70145 0.012,-3.40359 -0.0862,-5.10305 0,0 9.37474,-4.77667 9.37474,-4.77667 z"
       inkscape:connector-curvature="0" />
    <path
       style="opacity:0.98999999;fill:#917c6f;fill-opacity:1;stroke-width:8;stroke-miterlimit:4;stroke-dasharray:none;stroke-dashoffset:0"
       id="path3362"
       d="m 84.863876,334.97721 c 3.491995,0.14592 6.989823,0.12089 10.48433,0.11137 3.20162,0.0363 6.414714,-0.16572 9.609984,0.0674 3.56997,0.54822 6.8722,2.20708 9.99921,3.94463 3.75678,1.73157 6.9923,4.28923 9.9512,7.14324 2.04905,2.339 4.24909,4.58469 6.05801,7.12431 1.20342,1.68953 1.50477,2.39523 2.46416,4.20132 2.15102,4.18408 3.42295,8.69585 4.38627,13.27677 0.79339,3.72466 0.93755,7.51711 1.04085,11.30772 -0.11434,2.80256 0.41044,5.72867 -0.50742,8.44928 -0.22693,0.67265 -0.55688,1.30603 -0.83533,1.95904 -2.07699,4.15286 -5.43595,7.30663 -8.93194,10.254 -5.32042,4.25263 -11.40882,7.40369 -17.34449,10.69431 -2.76218,1.54473 -5.84007,2.43266 -8.88653,3.23256 -1.9161,0.40067 -3.785781,0.97648 -5.583776,1.73383 -1.351775,0.4866 -2.813401,0.48085 -4.23293,0.52862 -1.99362,0.085 -3.942414,0.0357 -5.897062,-0.37533 -2.646733,-0.87542 -5.279866,-2.00654 -7.631497,-3.51928 -2.669772,-2.0668 -5.626423,-3.7329 -8.456969,-5.56818 -2.710406,-2.1239 -5.632178,-4.02498 -8.160038,-6.3718 -1.604461,-1.44705 -2.450834,-3.41601 -3.363522,-5.32259 -0.944069,-2.00312 -1.735941,-4.08056 -2.72888,-6.05996 -0.832132,-1.48469 -1.292367,-3.11984 -1.713158,-4.75675 -0.409791,-1.8143 -0.563262,-3.66623 -0.981218,-5.47992 -0.595442,-2.32288 -0.719727,-4.71801 -1.047179,-7.08215 -0.306352,-1.94349 -0.567898,-3.89161 -0.712226,-5.85402 -0.103126,-1.63329 -0.08472,-3.27106 -0.09185,-4.90681 -0.08451,-1.66457 -0.03139,-3.2398 0.537216,-4.81436 0.593193,-1.49272 1.374732,-2.89937 2.074743,-4.34358 0.611132,-1.24069 1.342931,-2.43909 2.15144,-3.56215 0.531849,-0.59971 1.049958,-1.30757 1.751795,-1.72744 3.205578,-1.91768 6.512557,-3.66549 9.683763,-5.6395 0.219452,-0.1366 -24.66718,14.21312 1.339572,-0.77952 0.82779,-0.48347 1.839237,-0.38498 2.693502,-0.77713 0.389684,-0.17889 0.738246,-0.43724 1.118813,-0.63478 1.083385,-0.54281 2.142032,-1.12177 3.280371,-1.57193 1.37106,-0.3581 2.699155,-0.82007 4.099333,-1.0662 0.242253,-0.0306 0.484505,-0.0611 0.726757,-0.0917 0,0 -8.405891,6.31106 -8.405891,6.31106 l 0,0 c -0.231572,0.0444 -0.463144,0.0888 -0.694716,0.13321 -1.349672,0.33125 -2.694687,0.73121 -3.98342,1.25026 -1.09188,0.52586 -2.156195,1.09495 -3.252461,1.61057 -1.223244,0.57107 -2.594616,0.71766 -3.757421,1.43418 27.97019,-16.21645 -20.783266,12.04542 6.887972,-4.03204 0.937283,-0.54458 -2.809959,1.66765 -1.802023,1.44286 -0.900947,1.00807 -1.558851,2.20578 -2.280484,3.33981 -0.646047,1.47301 -1.468823,2.85047 -2.131163,4.30932 -0.698015,1.57518 -0.797495,2.72619 -0.698092,4.44922 -0.0042,1.61763 0.0041,3.23534 0.06206,4.85213 0.09154,1.9508 0.276186,3.89518 0.597582,5.82271 0.322541,2.32708 0.377969,4.69876 1.028508,6.97422 0.454575,1.79526 0.66964,3.62288 1.016434,5.43824 0.419315,1.56396 0.808504,3.15021 1.571973,4.5908 0.980833,1.99401 1.684788,4.11223 2.724625,6.08168 0.850966,1.79269 1.67379,3.62325 3.130012,5.02381 2.382987,2.36487 5.152673,4.36287 7.872536,6.31254 2.880481,1.79497 5.856291,3.45362 8.589011,5.47363 2.301336,1.39289 4.827513,2.52461 7.444657,3.15846 1.949954,0.25142 3.905573,0.2255 5.867421,0.11687 1.3877,-0.0915 2.7714,-0.23208 4.05047,-0.82511 1.76602,-0.66321 3.63314,-1.02491 5.4584,-1.48353 3.02221,-0.83516 6.01935,-1.83894 8.73742,-3.43235 3.45053,-1.9066 3.66566,-2.03854 -5.99642,3.53351 -0.49509,0.28551 0.98278,-0.58398 1.46609,-0.88903 0.30007,-0.18939 2.6808,-1.76662 2.90376,-1.9232 0.54354,-0.38173 1.06992,-0.78733 1.60488,-1.18099 3.47555,-2.84379 6.9047,-5.78946 9.07504,-9.8077 0.68513,-1.48815 0.92274,-1.76339 1.24491,-3.29948 0.45908,-2.18887 0.13309,-4.45917 0.21137,-6.67273 -0.0283,-3.75393 -0.18097,-7.51885 -0.79722,-11.22851 -0.86286,-4.52093 -2.24768,-8.8721 -4.25631,-13.02454 -0.94255,-1.84813 -1.10538,-2.3392 -2.34143,-4.04885 -1.80292,-2.49375 -3.98732,-4.7087 -6.09205,-6.94067 -2.93759,-2.74848 -6.07988,-5.2532 -9.76596,-6.93679 -3.12567,-1.59592 -6.37828,-3.14686 -9.921297,-3.46629 -3.149164,-0.14827 -6.303269,-0.038 -9.45474,-0.10347 -3.596812,-0.01 -7.196328,-0.0294 -10.79091,0.11137 0,0 8.53158,-6.19856 8.53158,-6.19856 z"
       inkscape:connector-curvature="0" />
  </g>
</svg>
